{
  "accessors": [
    {
      "bufferView": 2,
      "componentType": 5126,
      "count": 447,
      "max": [
        0.07284961640834808,
        -0.04021480679512024,
        0.0020000040531158447
      ],
      "min": [
        -0.06961654126644135,
        -0.0686744898557663,
        -0.06800000369548798
      ],
      "type": "VEC3"
    },
    {
      "bufferView": 2,
      "byteOffset": 5364,
      "componentType": 5126,
      "count": 447,
      "max": [
        1.0,
        0.9739463925361633,
        0.9999974966049194
      ],
      "min": [
        -0.9069337844848633,
        -0.999998927116394,
        -0.9999997615814209
      ],
      "type": "VEC3"
    },
    {
      "bufferView": 1,
      "componentType": 5126,
      "count": 447,
      "max": [
        0.8750000596046448,
        0.9910714626312256
      ],
      "min": [
        0.125,
        0.0
      ],
      "type": "VEC2"
    },
    {
      "bufferView": 0,
      "componentType": 5125,
      "count": 1680,
      "type": "SCALAR"
    },
    {
      "bufferView": 2,
      "byteOffset": 10728,
      "componentType": 5126,
      "count": 4,
      "max": [
        -0.03278444707393646,
        -0.04431690275669098,
        -0.004814814776182175
      ],
      "min": [
        -0.03278444707393646,
        -0.04794573783874512,
        -0.06125551462173462
      ],
      "type": "VEC3"
    },
    {
      "bufferView": 2,
      "byteOffset": 10776,
      "componentType": 5126,
      "count": 4,
      "max": [
        1.0,
        0.0,
        -0.0
      ],
      "min": [
        1.0,
        0.0,
        -0.0
      ],
      "type": "VEC3"
    },
    {
      "bufferView": 1,
      "byteOffset": 3576,
      "componentType": 5126,
      "count": 4,
      "max": [
        1.0,
        1.0
      ],
      "min": [
        0.0,
        0.0
      ],
      "type": "VEC2"
    },
    {
      "bufferView": 0,
      "byteOffset": 6720,
      "componentType": 5125,
      "count": 6,
      "type": "SCALAR"
    },
    {
      "bufferView": 2,
      "byteOffset": 10824,
      "componentType": 5126,
      "count": 296,
      "max": [
        0.005000010132789612,
        0.008500000461935997,
        0.005000000819563866
      ],
      "min": [
        -0.004999995231628418,
        -0.007500000298023224,
        -0.005000000819563866
      ],
      "type": "VEC3"
    },
    {
      "bufferView": 2,
      "byteOffset": 14376,
      "componentType": 5126,
      "count": 296,
      "max": [
        1.0,
        0.7823720574378967,
        1.0
      ],
      "min": [
        -1.0,
        0.0,
        -1.0
      ],
      "type": "VEC3"
    },
    {
      "bufferView": 1,
      "byteOffset": 3608,
      "componentType": 5126,
      "count": 296,
      "max": [
        1.0,
        0.9900000095367432
      ],
      "min": [
        0.0,
        0.0
      ],
      "type": "VEC2"
    },
    {
      "bufferView": 0,
      "byteOffset": 6744,
      "componentType": 5125,
      "count": 1434,
      "type": "SCALAR"
    },
    {
      "bufferView": 2,
      "byteOffset": 17928,
      "componentType": 5126,
      "count": 475,
      "max": [
        0.01850000023841858,
        0.004412852693349123,
        0.01850000023841858
      ],
      "min": [
        -0.01850000023841858,
        -0.003587147453799844,
        -0.01850000023841858
      ],
      "type": "VEC3"
    },
    {
      "bufferView": 2,
      "byteOffset": 23628,
      "componentType": 5126,
      "count": 475,
      "max": [
        0.9751690626144409,
        1.0,
        0.9952317476272583
      ],
      "min": [
        -0.9923972487449646,
        -0.20792801678180695,
        -0.9966322779655457
      ],
      "type": "VEC3"
    },
    {
      "bufferView": 1,
      "byteOffset": 5976,
      "componentType": 5126,
      "count": 475,
      "max": [
        0.8721111416816711,
        0.9233293533325195
      ],
      "min": [
        0.12788885831832886,
        0.2358294129371643
      ],
      "type": "VEC2"
    },
    {
      "bufferView": 0,
      "byteOffset": 12480,
      "componentType": 5125,
      "count": 1869,
      "type": "SCALAR"
    },
    {
      "bufferView": 2,
      "byteOffset": 29328,
      "componentType": 5126,
      "count": 144,
      "max": [
        0.07425587624311447,
        0.014355683699250221,
        0.031447116285562515
      ],
      "min": [
        -0.018444105982780457,
        0.014355654828250408,
        -0.02498023957014084
      ],
      "type": "VEC3"
    },
    {
      "bufferView": 2,
      "byteOffset": 31056,
      "componentType": 5126,
      "count": 144,
      "max": [
        9.352317675848099e-08,
        1.0,
        2.2998381155048264e-07
      ],
      "min": [
        -6.631762516917661e-08,
        1.0,
        -9.967720870918129e-08
      ],
      "type": "VEC3"
    },
    {
      "bufferView": 1,
      "byteOffset": 9776,
      "componentType": 5126,
      "count": 144,
      "max": [
        1.0106788873672485,
        0.9859448671340942
      ],
      "min": [
        0.0010256171226501465,
        -0.02939581871032715
      ],
      "type": "VEC2"
    },
    {
      "bufferView": 0,
      "byteOffset": 19956,
      "componentType": 5125,
      "count": 414,
      "type": "SCALAR"
    },
    {
      "bufferView": 2,
      "byteOffset": 32784,
      "componentType": 5126,
      "count": 60,
      "max": [
        0.010000000707805157,
        0.010000000707805157,
        0.031455203890800476
      ],
      "min": [
        -0.017204079777002335,
        0.008000003173947334,
        -0.025041472166776657
      ],
      "type": "VEC3"
    },
    {
      "bufferView": 2,
      "byteOffset": 33504,
      "componentType": 5126,
      "count": 60,
      "max": [
        1.0,
        1.0,
        0.9999997615814209
      ],
      "min": [
        -0.9999741911888123,
        -1.0,
        -0.9999992847442627
      ],
      "type": "VEC3"
    },
    {
      "bufferView": 1,
      "byteOffset": 10928,
      "componentType": 5126,
      "count": 60,
      "max": [
        0.875,
        0.9667845368385315
      ],
      "min": [
        0.125,
        0.0
      ],
      "type": "VEC2"
    },
    {
      "bufferView": 0,
      "byteOffset": 21612,
      "componentType": 5125,
      "count": 108,
      "type": "SCALAR"
    },
    {
      "bufferView": 2,
      "byteOffset": 34224,
      "componentType": 5126,
      "count": 26,
      "max": [
        0.005000000353902578,
        0.005000000353902578,
        0.03144349902868271
      ],
      "min": [
        -0.022035954520106316,
        0.0038711619563400745,
        -0.02499358542263508
      ],
      "type": "VEC3"
    },
    {
      "bufferView": 2,
      "byteOffset": 34536,
      "componentType": 5126,
      "count": 26,
      "max": [
        1.0,
        1.0,
        1.0
      ],
      "min": [
        -1.0,
        0.0,
        -1.0
      ],
      "type": "VEC3"
    },
    {
      "bufferView": 1,
      "byteOffset": 11408,
      "componentType": 5126,
      "count": 26,
      "max": [
        0.8750000596046448,
        0.5000005960464478
      ],
      "min": [
        0.125,
        0.25
      ],
      "type": "VEC2"
    },
    {
      "bufferView": 0,
      "byteOffset": 22044,
      "componentType": 5125,
      "count": 54,
      "type": "SCALAR"
    },
    {
      "bufferView": 2,
      "byteOffset": 34848,
      "componentType": 5126,
      "count": 4,
      "max": [
        0.013500000350177288,
        0.0,
        0.013500000350177288
      ],
      "min": [
        -0.013500000350177288,
        0.0,
        -0.04294227436184883
      ],
      "type": "VEC3"
    },
    {
      "bufferView": 2,
      "byteOffset": 34896,
      "componentType": 5126,
      "count": 4,
      "max": [
        0.0,
        1.0,
        -0.0
      ],
      "min": [
        0.0,
        1.0,
        -0.0
      ],
      "type": "VEC3"
    },
    {
      "bufferView": 1,
      "byteOffset": 11616,
      "componentType": 5126,
      "count": 4,
      "max": [
        1.0,
        1.0
      ],
      "min": [
        0.0,
        0.0
      ],
      "type": "VEC2"
    },
    {
      "bufferView": 0,
      "byteOffset": 22260,
      "componentType": 5125,
      "count": 6,
      "type": "SCALAR"
    },
    {
      "bufferView": 2,
      "byteOffset": 34944,
      "componentType": 5126,
      "count": 296,
      "max": [
        0.005000010132789612,
        0.008500000461935997,
        0.005000000819563866
      ],
      "min": [
        -0.004999995231628418,
        -0.007500000298023224,
        -0.005000000819563866
      ],
      "type": "VEC3"
    },
    {
      "bufferView": 2,
      "byteOffset": 38496,
      "componentType": 5126,
      "count": 296,
      "max": [
        1.0,
        0.7823720574378967,
        1.0
      ],
      "min": [
        -1.0,
        0.0,
        -1.0
      ],
      "type": "VEC3"
    },
    {
      "bufferView": 1,
      "byteOffset": 11648,
      "componentType": 5126,
      "count": 296,
      "max": [
        1.0,
        0.9900000095367432
      ],
      "min": [
        0.0,
        0.0
      ],
      "type": "VEC2"
    },
    {
      "bufferView": 0,
      "byteOffset": 22284,
      "componentType": 5125,
      "count": 1434,
      "type": "SCALAR"
    },
    {
      "bufferView": 2,
      "byteOffset": 42048,
      "componentType": 5126,
      "count": 296,
      "max": [
        0.005000010132789612,
        0.008500000461935997,
        0.005000000819563866
      ],
      "min": [
        -0.004999995231628418,
        -0.007500000298023224,
        -0.005000000819563866
      ],
      "type": "VEC3"
    },
    {
      "bufferView": 2,
      "byteOffset": 45600,
      "componentType": 5126,
      "count": 296,
      "max": [
        1.0,
        0.7823720574378967,
        1.0
      ],
      "min": [
        -1.0,
        0.0,
        -1.0
      ],
      "type": "VEC3"
    },
    {
      "bufferView": 1,
      "byteOffset": 14016,
      "componentType": 5126,
      "count": 296,
      "max": [
        1.0,
        0.9900000095367432
      ],
      "min": [
        0.0,
        0.0
      ],
      "type": "VEC2"
    },
    {
      "bufferView": 0,
      "byteOffset": 28020,
      "componentType": 5125,
      "count": 1434,
      "type": "SCALAR"
    }
  ],
  "asset": {
    "extras": {
      "author": "Evolver3721 (https://sketchfab.com/evolver3721)",
      "license": "CC-BY-SA-4.0 (http://creativecommons.org/licenses/by-sa/4.0/)",
      "source": "https://sketchfab.com/3d-models/digital-multimeter-5bb862c4f5ae48e4894e37e8b3a7a874",
      "title": "Digital Multimeter"
    },
    "generator": "Sketchfab-12.68.0",
    "version": "2.0"
  },
  "bufferViews": [
    {
      "buffer": 0,
      "byteLength": 33756,
      "name": "floatBufferViews",
      "target": 34963
    },
    {
      "buffer": 0,
      "byteLength": 16384,
      "byteOffset": 33756,
      "byteStride": 8,
      "name": "floatBufferViews",
      "target": 34962
    },
    {
      "buffer": 0,
      "byteLength": 49152,
      "byteOffset": 50140,
      "byteStride": 12,
      "name": "floatBufferViews",
      "target": 34962
    }
  ],
  "buffers": [
    {
      "byteLength": 99292,
      "uri": "scene.bin"
    }
  ],
  "images": [
    {
      "uri": "textures/Cursor_baseColor.png"
    },
    {
      "uri": "textures/Material_baseColor.png"
    }
  ],
  "materials": [
    {
      "doubleSided": true,
      "name": "Body",
      "pbrMetallicRoughness": {
        "baseColorFactor": [
          0.00871262,
          0.177697,
          0.149013,
          1.0
        ],
        "metallicFactor": 0.0,
        "roughnessFactor": 0.5
      }
    },
    {
      "doubleSided": true,
      "name": "shadow",
      "pbrMetallicRoughness": {
        "baseColorFactor": [
          0.0,
          0.0,
          0.0,
          1.0
        ],
        "metallicFactor": 0.0,
        "roughnessFactor": 0.5
      }
    },
    {
      "doubleSided": true,
      "name": "svorka1",
      "pbrMetallicRoughness": {
        "baseColorFactor": [
          0.0,
          0.147002,
          0.586688,
          1.0
        ],
        "metallicFactor": 0.0,
        "roughnessFactor": 0.7
      }
    },
    {
      "doubleSided": true,
      "name": "Cursor",
      "pbrMetallicRoughness": {
        "baseColorTexture": {
          "index": 0
        },
        "metallicFactor": 0.35763891127713926,
        "roughnessFactor": 0.5
      }
    },
    {
      "doubleSided": true,
      "name": "Material",
      "pbrMetallicRoughness": {
        "baseColorTexture": {
          "index": 1
        },
        "metallicFactor": 0.0,
        "roughnessFactor": 0.878151
      }
    },
    {
      "alphaMode": "BLEND",
      "doubleSided": true,
      "name": "Facade_Glass",
      "pbrMetallicRoughness": {
        "baseColorFactor": [
          1.0,
          1.0,
          1.0,
          0.03855590674247892
        ]
      }
    },
    {
      "doubleSided": true,
      "name": "Material.002",
      "pbrMetallicRoughness": {
        "baseColorFactor": [
          0.0827169,
          0.0827169,
          0.0827169,
          1.0
        ],
        "metallicFactor": 0.0,
        "roughnessFactor": 0.5
      }
    },
    {
      "doubleSided": true,
      "name": "Material.003",
      "pbrMetallicRoughness": {
        "baseColorFactor": [
          0.0608848,
          0.15239,
          0.0648213,
          1.0
        ],
        "metallicFactor": 0.0,
        "roughnessFactor": 0.5
      }
    },
    {
      "doubleSided": true,
      "name": "svorka2",
      "pbrMetallicRoughness": {
        "baseColorFactor": [
          0.586688,
          0.0037013,
          0.0,
          1.0
        ],
        "metallicFactor": 0.0,
        "roughnessFactor": 0.7
      }
    },
    {
      "doubleSided": true,
      "name": "svorka3",
      "pbrMetallicRoughness": {
        "baseColorFactor": [
          0.0,
          0.0,
          0.0,
          1.0
        ],
        "metallicFactor": 0.0,
        "roughnessFactor": 0.7
      }
    }
  ],
  "meshes": [
    {
      "name": "Object_0",
      "primitives": [
        {
          "attributes": {
            "NORMAL": 1,
            "POSITION": 0,
            "TEXCOORD_0": 2
          },
          "indices": 3,
          "material": 0,
          "mode": 4
        }
      ]
    },
    {
      "name": "Object_1",
      "primitives": [
        {
          "attributes": {
            "NORMAL": 5,
            "POSITION": 4,
            "TEXCOORD_0": 6
          },
          "indices": 7,
          "material": 1,
          "mode": 4
        }
      ]
    },
    {
      "name": "Object_2",
      "primitives": [
        {
          "attributes": {
            "NORMAL": 9,
            "POSITION": 8,
            "TEXCOORD_0": 10
          },
          "indices": 11,
          "material": 2,
          "mode": 4
        }
      ]
    },
    {
      "name": "Object_3",
      "primitives": [
        {
          "attributes": {
            "NORMAL": 13,
            "POSITION": 12,
            "TEXCOORD_0": 14
          },
          "indices": 15,
          "material": 3,
          "mode": 4
        }
      ]
    },
    {
      "name": "Object_4",
      "primitives": [
        {
          "attributes": {
            "NORMAL": 17,
            "POSITION": 16,
            "TEXCOORD_0": 18
          },
          "indices": 19,
          "material": 4,
          "mode": 4
        }
      ]
    },
    {
      "name": "Object_5",
      "primitives": [
        {
          "attributes": {
            "NORMAL": 21,
            "POSITION": 20,
            "TEXCOORD_0": 22
          },
          "indices": 23,
          "material": 5,
          "mode": 4
        }
      ]
    },
    {
      "name": "Object_6",
      "primitives": [
        {
          "attributes": {
            "NORMAL": 25,
            "POSITION": 24,
            "TEXCOORD_0": 26
          },
          "indices": 27,
          "material": 6,
          "mode": 4
        }
      ]
    },
    {
      "name": "Object_7",
      "primitives": [
        {
          "attributes": {
            "NORMAL": 29,
            "POSITION": 28,
            "TEXCOORD_0": 30
          },
          "indices": 31,
          "material": 7,
          "mode": 4
        }
      ]
    },
    {
      "name": "Object_8",
      "primitives": [
        {
          "attributes": {
            "NORMAL": 33,
            "POSITION": 32,
            "TEXCOORD_0": 34
          },
          "indices": 35,
          "material": 8,
          "mode": 4
        }
      ]
    },
    {
      "name": "Object_9",
      "primitives": [
        {
          "attributes": {
            "NORMAL": 37,
            "POSITION": 36,
            "TEXCOORD_0": 38
          },
          "indices": 39,
          "material": 9,
          "mode": 4
        }
      ]
    }
  ],
  "nodes": [
    {
      "children": [
        1
      ],
      "matrix": [
        -3.885780586188048e-16,
        -0.9838746190071106,
        0.1788595914840696,
        0.0,
        0.9265723824501038,
        -0.06727204471826545,
        -0.37005147337913513,
        0.0,
        0.3761165142059326,
        0.16572634875774364,
        0.9116310477256775,
        0.0,
        -0.008482792414724827,
        -0.041611306369304664,
        0.028556030243635167,
        1.0
      ],
      "name": "Sketchfab_model"
    },
    {
      "children": [
        2
      ],
      "name": "root"
    },
    {
      "children": [
        3,
        6,
        8,
        10,
        12,
        14,
        16,
        18,
        20
      ],
      "matrix": [
        1.0,
        0.0,
        0.0,
        0.0,
        0.0,
        2.220446049250313e-16,
        1.0,
        0.0,
        0.0,
        -1.0,
        2.220446049250313e-16,
        0.0,
        0.0,
        0.0,
        0.0,
        1.0
      ],
      "name": "GLTF_SceneRootNode"
    },
    {
      "children": [
        4,
        5
      ],
      "name": "Body_0"
    },
    {
      "mesh": 0,
      "name": "Object_4"
    },
    {
      "mesh": 1,
      "name": "Object_5"
    },
    {
      "children": [
        7
      ],
      "matrix": [
        1.0,
        0.0,
        0.0,
        0.0,
        0.0,
        1.0,
        0.0,
        0.0,
        0.0,
        0.0,
        1.0,
        0.0,
        0.036011599004268646,
        -0.05107301101088524,
        -0.051935967057943344,
        1.0
      ],
      "name": "Pinout_1"
    },
    {
      "mesh": 2,
      "name": "Object_7"
    },
    {
      "children": [
        9
      ],
      "matrix": [
        0.9955042743564921,
        0.0088054134752872,
        0.09430643897148985,
        0.0,
        -0.008593052297153611,
        0.999959547258261,
        -0.0026576868273062173,
        0.0,
        -0.09432602604887208,
        0.001835358434443946,
        0.9955396688576728,
        0.0,
        0.004018688574433327,
        -0.04672975465655327,
        -0.03300000727176666,
        1.0
      ],
      "name": "Cursor_2"
    },
    {
      "mesh": 3,
      "name": "Object_9"
    },
    {
      "children": [
        11
      ],
      "matrix": [
        1.0,
        0.0,
        0.0,
        0.0,
        0.0,
        1.0,
        0.0,
        0.0,
        0.0,
        0.0,
        1.0,
        0.0,
        -0.014340341091156006,
        -0.05867258086800575,
        -0.03626193106174469,
        1.0
      ],
      "name": "Front Panel_3"
    },
    {
      "mesh": 4,
      "name": "Object_11"
    },
    {
      "children": [
        13
      ],
      "matrix": [
        1.0,
        0.0,
        0.0,
        0.0,
        0.0,
        1.0,
        0.0,
        0.0,
        0.0,
        0.0,
        1.0,
        0.0,
        -0.042784448713064194,
        -0.05431690439581871,
        -0.03626193106174469,
        1.0
      ],
      "name": "Glass_4"
    },
    {
      "mesh": 5,
      "name": "Object_13"
    },
    {
      "children": [
        15
      ],
      "matrix": [
        1.0,
        0.0,
        0.0,
        0.0,
        0.0,
        1.0,
        0.0,
        0.0,
        0.0,
        0.0,
        1.0,
        0.0,
        -0.03778444603085518,
        -0.051816899329423904,
        -0.03626193106174469,
        1.0
      ],
      "name": "Shield_5"
    },
    {
      "mesh": 6,
      "name": "Object_15"
    },
    {
      "children": [
        17
      ],
      "matrix": [
        1.0,
        0.0,
        0.0,
        0.0,
        0.0,
        1.0,
        0.0,
        0.0,
        0.0,
        0.0,
        1.0,
        0.0,
        -0.046284448355436325,
        -0.04794573783874512,
        -0.018299898132681847,
        1.0
      ],
      "name": "LCD_6"
    },
    {
      "mesh": 7,
      "name": "Object_17"
    },
    {
      "children": [
        19
      ],
      "matrix": [
        1.0,
        0.0,
        0.0,
        0.0,
        0.0,
        1.0,
        0.0,
        0.0,
        0.0,
        0.0,
        1.0,
        0.0,
        0.036011599004268646,
        -0.05107301101088524,
        -0.03303202986717224,
        1.0
      ],
      "name": "Pinout.001_7"
    },
    {
      "mesh": 8,
      "name": "Object_19"
    },
    {
      "children": [
        21
      ],
      "matrix": [
        1.0,
        0.0,
        0.0,
        0.0,
        0.0,
        1.0,
        0.0,
        0.0,
        0.0,
        0.0,
        1.0,
        0.0,
        0.036011599004268646,
        -0.05107301101088524,
        -0.014032032340765,
        1.0
      ],
      "name": "Pinout.002_8"
    },
    {
      "mesh": 9,
      "name": "Object_21"
    }
  ],
  "samplers": [
    {
      "magFilter": 9729,
      "minFilter": 9987,
      "wrapS": 10497,
      "wrapT": 10497
    }
  ],
  "scene": 0,
  "scenes": [
    {
      "name": "Sketchfab_Scene",
      "nodes": [
        0
      ]
    }
  ],
  "textures": [
    {
      "sampler": 0,
      "source": 0
    },
    {
      "sampler": 0,
      "source": 1
    }
  ]
}
